<?xml version="1.0" encoding="utf-8"?>
<!DOCTYPE svg PUBLIC "-//W3C//DTD SVG 1.1//EN" "http://www.w3.org/Graphics/SVG/1.1/DTD/svg11.dtd">
<svg style="width:308px;height:308px;" version="1.1" id="图形" xmlns="http://www.w3.org/2000/svg" xmlns:xlink="http://www.w3.org/1999/xlink" x="0px" y="0px" width="1024px" height="1024px" viewBox="0 0 1024 1024" enable-background="new 0 0 1024 1024" xml:space="preserve">
  <path class="svgpath" data-index="path_0" fill="#ffffff" d="M60.14976 308.92032l903.70048 0c32.31744 0 58.60352-29.02016 58.60352-64.69632s-26.28608-64.69632-58.60352-64.69632L60.14976 179.52768c-32.3072 0-58.59328 29.02016-58.59328 64.69632S27.84256 308.92032 60.14976 308.92032z" />
<path class="svgpath" data-index="path_1" fill="#ffffff" d="M963.85024 447.30368 60.14976 447.30368c-32.3072 0-58.59328 29.02016-58.59328 64.69632s26.28608 64.69632 58.59328 64.69632l903.70048 0c32.31744 0 58.60352-29.0304 58.60352-64.69632S996.15744 447.30368 963.85024 447.30368z" />
<path class="svgpath" data-index="path_2" fill="#ffffff" d="M963.85024 715.06944 60.14976 715.06944c-32.3072 0-58.59328 29.0304-58.59328 64.69632s26.28608 64.69632 58.59328 64.69632l903.70048 0c32.31744 0 58.60352-29.02016 58.60352-64.69632S996.15744 715.06944 963.85024 715.06944z" />

</svg>
