<?xml version="1.0" encoding="utf-8"?>
<!DOCTYPE svg PUBLIC "-//W3C//DTD SVG 1.1//EN" "http://www.w3.org/Graphics/SVG/1.1/DTD/svg11.dtd">
<svg style="width:308px;height:308px;" version="1.1" id="图形" xmlns="http://www.w3.org/2000/svg" xmlns:xlink="http://www.w3.org/1999/xlink" x="0px" y="0px" width="1024px" height="1024px" viewBox="0 0 1024 1024" enable-background="new 0 0 1024 1024" xml:space="preserve">
  <path class="svgpath" data-index="path_0" fill="#ffffff" d="M854.534865 259.712043c11.280928-11.280928 11.280928-29.740348 0-41.022299l-49.226145-49.227168c-11.280928-11.280928-29.740348-11.280928-41.022299 0L532.509614 401.23836c-11.279904 11.280928-29.740348 11.280928-41.021276 0L259.712555 169.4636c-11.280928-11.280928-29.740348-11.280928-41.022299 0l-49.226145 49.228191c-11.280928 11.280928-11.280928 29.740348 0 41.022299l231.774761 231.773737c11.280928 11.280928 11.280928 29.740348 0 41.022299L169.463088 764.283864c-11.280928 11.280928-11.280928 29.740348 0 41.022299l49.226145 49.228191c11.280928 11.280928 29.741371 11.280928 41.022299 0L491.487316 622.759593c11.280928-11.280928 29.741371-11.280928 41.021276 0L764.286422 854.535377c11.280928 11.280928 29.740348 11.280928 41.022299 0l49.226145-49.227168c11.280928-11.280928 11.280928-29.740348 0-41.022299L622.759081 532.510126c-11.280928-11.280928-11.280928-29.741371 0-41.022299L854.534865 259.712043z" />

</svg>
