<?xml version="1.0" encoding="utf-8"?>
<!DOCTYPE svg PUBLIC "-//W3C//DTD SVG 1.1//EN" "http://www.w3.org/Graphics/SVG/1.1/DTD/svg11.dtd">
<svg style="width:308px;height:308px;" version="1.1" id="图形" xmlns="http://www.w3.org/2000/svg" xmlns:xlink="http://www.w3.org/1999/xlink" x="0px" y="0px" width="1024px" height="1024px" viewBox="0 0 1024 1024" enable-background="new 0 0 1024 1024" xml:space="preserve">
  <path class="svgpath" data-index="path_0" fill="#272636" d="M706.947072 317.065216c-5.90848-5.910528-12.029952-11.47904-18.323456-16.740352 0.530432-1.462272 0.108544-3.155968-1.181696-4.163584l-5.828608-4.552704c-1.261568-0.985088-2.953216-1.011712-4.235264-0.206848-107.99104-81.174528-262.039552-72.63232-360.33536 25.665536-107.6736 107.665408-107.630592 282.198016 0.038912 389.853184 107.646976 107.6736 282.18368 107.681792 389.85728 0.018432C814.608384 599.263232 814.608384 424.712192 706.947072 317.065216L706.947072 317.065216zM686.260224 686.258176c-96.313344 96.294912-252.280832 96.219136-348.567552-0.014336-96.241664-96.247808-96.282624-252.256256 0-348.522496 87.709696-87.68512 224.985088-95.483904 321.499136-23.41888l-53.768192 68.820992c-62.189568-45.115392-149.952512-39.688192-205.973504 16.336896-62.042112 62.042112-62.042112 163.049472 0 225.087488 32.198656 32.190464 74.883072 47.63648 117.170176 46.422016 2.025472 4.028416 4.691968 7.815168 8.060928 11.177984 16.7936 16.80384 44.0832 16.766976 60.940288-0.063488 9.836544-9.85088 13.883392-23.26528 12.210176-36.073472 9.467904-6.064128 18.446336-13.195264 26.712064-21.46304 62.056448-62.058496 62.056448-163.045376 0.012288-225.114112-2.463744-2.463744-5.009408-4.794368-7.591936-7.059456l53.809152-68.868096c5.310464 4.48512 10.481664 9.211904 15.484928 14.215168C782.508032 433.967104 782.508032 589.993984 686.260224 686.258176L686.260224 686.258176zM585.619456 621.154304c-16.861184-16.857088-44.146688-16.889856-60.971008-0.047104-10.77248 10.747904-14.63296 25.772032-11.636736 39.630848-38.463488 0.258048-77.010944-14.231552-106.287104-43.511808-58.04032-58.038272-58.04032-152.477696 0-210.511872 52.277248-52.271104 134.025216-57.438208 192.188416-15.566848l-75.722752 96.919552c-9.797632-4.550656-21.827584-2.789376-29.851648 5.24288-10.313728 10.28096-10.354688 27.078656-0.065536 37.326848 10.371072 10.36288 27.0848 10.36288 37.43744 0 8.845312-8.808448 10.104832-22.550528 3.61472-32.796672l75.532288-96.669696c0.274432-0.188416 0.528384-0.411648 0.751616-0.677888 2.26304 2.002944 4.493312 4.061184 6.658048 6.221824 57.995264 58.034176 58.058752 152.4736 0 210.511872-6.905856 6.909952-14.342144 12.967936-22.155264 18.233344C593.002496 630.25152 589.842432 625.375232 585.619456 621.154304L585.619456 621.154304zM585.619456 621.154304" />
<path class="svgpath" data-index="path_1" fill="#272636" d="M512 1024C229.681152 1024 0 794.318848 0 512S229.681152 0 512 0s512 229.681152 512 512S794.318848 1024 512 1024zM512 31.031296C246.788096 31.031296 31.031296 246.788096 31.031296 512S246.788096 992.968704 512 992.968704 992.968704 777.211904 992.968704 512 777.211904 31.031296 512 31.031296z" />

</svg>
