<?xml version="1.0" encoding="utf-8"?>
<!DOCTYPE svg PUBLIC "-//W3C//DTD SVG 1.1//EN" "http://www.w3.org/Graphics/SVG/1.1/DTD/svg11.dtd">
<svg style="width:308px;height:308px;" version="1.1" id="图形" xmlns="http://www.w3.org/2000/svg" xmlns:xlink="http://www.w3.org/1999/xlink" x="0px" y="0px" width="1024px" height="1024px" viewBox="0 0 1024 1024" enable-background="new 0 0 1024 1024" xml:space="preserve">
  <path class="svgpath" data-index="path_0" fill="#272636" d="M144.266731 527.974833 144.266731 304.165488c0-8.893554-7.15905-16.003486-15.988136-16.003486-8.891508 0-15.988136 7.16519-15.988136 16.003486l0 223.809345c0 8.893554 7.158027 16.002462 15.988136 16.002462C137.169079 543.976272 144.266731 536.813129 144.266731 527.974833z" />
<path class="svgpath" data-index="path_1" fill="#272636" d="M943.686836 352.11557c-8.892531 0-15.988136 7.137561-15.988136 15.941064l0 96.025007c0 8.698103 7.158027 15.941064 15.988136 15.941064 8.890484 0 15.988136-7.136537 15.988136-15.941064l0-96.025007C959.674972 359.359554 952.516946 352.11557 943.686836 352.11557z" />
<path class="svgpath" data-index="path_2" fill="#272636" d="M96.3013 464.082664l0-96.025007c0-8.698103-7.15905-15.941064-15.988136-15.941064-8.891508 0-15.988136 7.137561-15.988136 15.941064l0 96.025007c0 8.698103 7.158027 15.941064 15.988136 15.941064C89.203648 480.022705 96.3013 472.886167 96.3013 464.082664z" />
<path class="svgpath" data-index="path_3" fill="#272636" d="M911.710564 527.974833 911.710564 304.165488c0-8.893554-7.15905-16.003486-15.988136-16.003486-8.892531 0-15.988136 7.16519-15.988136 16.003486l0 223.809345c0 8.893554 7.158027 16.002462 15.988136 16.002462C904.612912 543.976272 911.710564 536.813129 911.710564 527.974833z" />
<path class="svgpath" data-index="path_4" fill="#272636" d="M671.883407 512c52.980655 0 95.930863-42.949184 95.930863-95.930863 0-52.979632-42.950208-95.930863-95.930863-95.930863-52.980655 0-95.930863 42.950208-95.930863 95.930863C575.953567 469.050816 618.902752 512 671.883407 512zM671.883407 352.11557c35.320437 0 63.953567 28.633131 63.953567 63.953567 0 35.32146-28.633131 63.953567-63.953567 63.953567-35.32146 0-63.953567-28.632107-63.953567-63.953567C607.92984 380.749724 636.56297 352.11557 671.883407 352.11557z" />
<path class="svgpath" data-index="path_5" fill="#272636" d="M352.11557 512c52.979632 0 95.930863-42.949184 95.930863-95.930863 0-52.979632-42.950208-95.930863-95.930863-95.930863-52.980655 0-95.930863 42.950208-95.930863 95.930863C256.18573 469.050816 299.134915 512 352.11557 512zM352.11557 352.11557c35.320437 0 63.953567 28.633131 63.953567 63.953567 0 35.32146-28.633131 63.953567-63.953567 63.953567-35.32146 0-63.953567-28.632107-63.953567-63.953567C288.162002 380.749724 316.79411 352.11557 352.11557 352.11557z" />
<path class="svgpath" data-index="path_6" fill="#272636" d="M608.025007 64.324004 415.97397 64.324004c-17.5804 0-31.881105 14.360056-31.881105 32.07144l0 63.859423L192.309934 160.254867c-17.684778 0-32.055067 14.329357-32.055067 32.004925l0 447.619714c0 17.787108 14.350846 32.003901 32.055067 32.003901l191.782931 0 0 63.953567-63.987337 0c-17.581424 0-31.942503 14.359033-31.942503 32.070416l0 159.697165c0 17.72878 14.253632 32.070416 31.836079 32.070416l384.001791 0c17.449417 0 31.837102-14.358009 31.837102-32.070416l0-159.697165c0-17.727757-14.301727-32.070416-31.943526-32.070416l-63.987337 0 0-63.953567 191.781908 0c17.684778 0 32.05609-14.328333 32.05609-32.003901L863.745133 192.259792c0-17.787108-14.351869-32.004925-32.05609-32.004925L639.907135 160.254867 639.907135 96.395444C639.907135 78.499865 625.632013 64.324004 608.025007 64.324004zM416.069137 96.3013 607.92984 96.3013l0 63.953567L416.069137 160.254867 416.069137 96.3013zM703.860702 767.81427l0 159.88443L320.139298 927.6987 320.139298 767.81427l95.930863 0 0-95.930863L607.92984 671.883407l0 95.930863L703.860702 767.81427zM799.834544 192.231139c17.636682 0 31.934317 14.387685 31.934317 31.837102l0 384.001791c0 17.582447-14.254655 31.836079-31.934317 31.836079L224.164433 639.906112c-17.636682 0-31.933293-14.387685-31.933293-31.836079L192.231139 224.069265c0-17.582447 14.254655-31.837102 31.933293-31.837102L799.834544 192.232163z" />

</svg>
