<?xml version="1.0" encoding="utf-8"?>
<!DOCTYPE svg PUBLIC "-//W3C//DTD SVG 1.1//EN" "http://www.w3.org/Graphics/SVG/1.1/DTD/svg11.dtd">
<svg style="width:308px;height:308px;" version="1.1" id="图形" xmlns="http://www.w3.org/2000/svg" xmlns:xlink="http://www.w3.org/1999/xlink" x="0px" y="0px" width="1024px" height="1024px" viewBox="0 0 1024 1024" enable-background="new 0 0 1024 1024" xml:space="preserve">
  <path class="svgpath" data-index="path_0" fill="#272636" d="M511.505792 11.861004c-279.494672 0-506.069498 226.574826-506.069498 506.069498 0 279.493683 226.574826 506.069498 506.069498 506.069498 279.494672 0 506.070486-226.575815 506.070486-506.069498 0-279.494672-226.575815-506.069498-506.070486-506.069498zM855.047907 861.470641c-44.62505 44.62505-96.585143 79.660479-154.437189 104.127753-59.884232 25.329174-123.507645 38.171676-189.104927 38.171676-65.596293 0-129.221683-12.842502-189.103938-38.171676-57.851058-24.468263-109.810162-59.502703-154.437189-104.127753s-79.658502-96.585143-104.126764-154.436201c-25.329174-59.883243-38.171676-123.506656-38.171676-189.103938s12.842502-129.221683 38.171676-189.104927c24.469251-57.851058 59.502703-109.810162 104.127753-154.437189s96.585143-79.65949 154.437189-104.127753c59.883243-25.328185 123.506656-38.170687 189.10295-38.170687 65.597282 0 129.221683 12.842502 189.104927 38.171676 57.851058 24.469251 109.810162 59.502703 154.437189 104.127753s79.65949 96.586131 104.127753 154.437189c25.329174 59.884232 38.171676 123.507645 38.171676 189.104927s-12.842502 129.221683-38.171676 189.103938c-24.469251 57.850069-59.502703 109.809174-104.127753 154.435212zM744.673359 423.187768l0-23.743753-94.918672 0c15.582394-4.573405 31.812201-7.71756 48.389931-9.325714 2.77251-0.269838 5.019181-2.080618 5.986842-4.501251 0.689915-1.234533 1.025977-2.683552 0.88068-4.197807-0.383506-3.956633-3.903259-6.853683-7.86088-6.470178-11.472556 1.112958-23.095351-0.083027-34.71617-3.541498 11.904494-2.87827 24.131212-4.935166 36.549683-6.141035 1.305699-0.125529 2.491799-0.599969 3.486147-1.311629 2.245683-1.401575 3.635398-3.987274 3.362595-6.79932-0.383506-3.956633-3.899305-6.850718-7.859892-6.470178-11.825421 1.145575-23.804046-0.155181-35.778718-3.861745 11.398425-2.808093 23.09634-4.861035 34.982054-6.133127 1.008185-0.067212 2.014394-0.145297 3.019614-0.243151 3.956633-0.383506 6.853683-3.903259 6.469189-7.86088-0.343969-3.544463-3.203459-6.231969-6.641174-6.478085-0.516942-0.064247-1.046734-0.078085-1.586409-0.02471-0.808525 0.079073-1.614085 0.167042-2.42261 0.252046-11.079166 0.714625-22.283861-0.710672-33.483614-4.23932 12.402656-3.081884 25.162131-5.275181 38.135104-6.534425 0.073143-0.006919 0.145297-0.022734 0.217452-0.032618 0.050409-0.004942 0.09983-0.006919 0.152216-0.012849 3.957622-0.383506 6.854672-3.904247 6.469189-7.86088-0.383506-3.956633-3.90227-6.850718-7.859892-6.469189-11.940077 1.156448-24.041266-0.184834-36.134548-3.976402 10.472278-2.596571 21.198579-4.554625 32.092911-5.854394 2.089514-0.073143 4.178039-0.202625 6.263598-0.406239 3.956633-0.383506 6.853683-3.904247 6.469189-7.86088-0.222394-2.305977-1.51722-4.243274-3.335907-5.388849-1.365992-0.981498-3.076942-1.495475-4.884757-1.318548-1.857236 0.179892-3.709529 0.384494-5.559846 0.600958-10.173776 0.286641-20.445405-1.22366-30.709127-4.498286 12.516324-3.130317 25.399351-5.352278 38.496865-6.624371 3.957622-0.383506 6.854672-3.904247 6.471166-7.86088-0.383506-3.956633-3.903259-6.854672-7.86088-6.470178-20.822981 2.021313-41.150764 6.313019-60.420942 12.758486-3.772788 1.26122-5.804973 5.340417-4.543753 9.111228 0.759104 2.26644 2.533313 3.904247 4.647537 4.579336 0.567351 0.584154 1.23651 1.087259 2.009452 1.463846 4.025822 1.960031 8.062517 3.678888 12.109097 5.159537-5.085405 1.370934-10.107552 2.883212-15.064463 4.540788-3.770811 1.26122-5.804973 5.339429-4.543753 9.111228 0.809514 2.419645 2.780417 4.121699 5.085405 4.699923 0.469498 0.410193 0.993359 0.770965 1.581467 1.057606 4.173097 2.033174 8.362008 3.805405 12.558826 5.322625-5.240587 1.401575-10.419892 2.954378-15.523089 4.662363-3.772788 1.26122-5.804973 5.339429-4.543753 9.110239 0.793699 2.370224 2.701344 4.050533 4.94505 4.661375 0.501127 0.461591 1.076386 0.862888 1.720834 1.176216 4.131583 2.012417 8.277004 3.770811 12.43132 5.278147-5.196108 1.393668-10.331923 2.932633-15.392618 4.62678-3.770811 1.26122-5.803985 5.339429-4.542764 9.111228 0.848062 2.536278 2.97217 4.281822 5.418502 4.772077 0.383506 0.296525 0.803583 0.558456 1.25529 0.778873 4.284788 2.086548 8.583413 3.895351 12.891923 5.439259-5.35722 1.426286-10.650193 3.005776-15.863104 4.75132-3.772788 1.26122-5.804973 5.339429-4.543753 9.110239 0.981498 2.93461 3.669992 4.812602 6.591753 4.908479 0.035583 0.017792 0.066224 0.038548 0.100819 0.05634 4.600093 2.240741 9.216 4.156293 13.84278 5.770378-5.68834 1.491521-11.305514 3.157992-16.835707 5.004355-3.770811 1.26122-5.804973 5.339429-4.543753 9.110239 0.217452 0.654332 0.535722 1.245405 0.908355 1.787058l-83.075459 0c15.581405-4.573405 31.810224-7.71756 48.388942-9.325714 2.773498-0.269838 5.02017-2.080618 5.986842-4.501251 0.689915-1.234533 1.026965-2.683552 0.88068-4.197807-0.383506-3.956633-3.904247-6.853683-7.859892-6.470178-11.474533 1.112958-23.095351-0.083027-34.71617-3.541498 11.904494-2.87827 24.130224-4.935166 36.550672-6.141035 1.303722-0.125529 2.489822-0.599969 3.486147-1.311629 2.244695-1.400587 3.633421-3.987274 3.361606-6.79932-0.384494-3.956633-3.900293-6.850718-7.86088-6.470178-11.824432 1.145575-23.804046-0.155181-35.77773-3.861745 11.397436-2.808093 23.095351-4.861035 34.982054-6.133127 1.007197-0.067212 2.012417-0.145297 3.018625-0.243151 3.957622-0.383506 6.854672-3.903259 6.469189-7.86088-0.343969-3.544463-3.203459-6.231969-6.640185-6.478085-0.517931-0.064247-1.047722-0.078085-1.588386-0.02471-0.807537 0.079073-1.614085 0.167042-2.419645 0.252046-11.079166 0.714625-22.283861-0.710672-33.483614-4.23932 12.401668-3.081884 25.162131-5.275181 38.134116-6.534425 0.074131-0.008896 0.144309-0.022734 0.217452-0.032618 0.051398-0.004942 0.100819-0.008896 0.153205-0.012849 3.955645-0.383506 6.852695-3.904247 6.469189-7.86088-0.383506-3.956633-3.90227-6.850718-7.86088-6.469189-11.940077 1.156448-24.041266-0.185822-36.134548-3.978378 10.472278-2.596571 21.198579-4.554625 32.092911-5.854394 2.089514-0.073143 4.179027-0.202625 6.263598-0.406239 3.957622-0.383506 6.854672-3.904247 6.470178-7.86088-0.223382-2.304988-1.51722-4.243274-3.335907-5.388849-1.366981-0.981498-3.078919-1.495475-4.885745-1.318548-1.859212 0.179892-3.709529 0.384494-5.557869 0.600958-10.175753 0.286641-20.445405-1.222672-30.709127-4.498286 12.516324-3.130317 25.399351-5.354255 38.496865-6.624371 3.956633-0.383506 6.854672-3.904247 6.469189-7.86088-0.382517-3.956633-3.90227-6.854672-7.858903-6.470178-20.822981 2.021313-41.149776 6.313019-60.421931 12.758486-3.770811 1.26122-5.803985 5.340417-4.543753 9.111228 0.758116 2.26644 2.533313 3.904247 4.647537 4.579336 0.567351 0.584154 1.23651 1.087259 2.008463 1.463846 4.025822 1.960031 8.061529 3.678888 12.109097 5.159537-5.083429 1.370934-10.108541 2.883212-15.062486 4.540788-3.770811 1.26122-5.804973 5.339429-4.544741 9.110239 0.809514 2.419645 2.780417 4.121699 5.085405 4.699923 0.469498 0.410193 0.995336 0.770965 1.581467 1.057606 4.174085 2.033174 8.362996 3.805405 12.559815 5.322625-5.240587 1.401575-10.419892 2.954378-15.524077 4.662363-3.770811 1.26122-5.803985 5.339429-4.543753 9.110239 0.79271 2.370224 2.700355 4.050533 4.94505 4.661375 0.501127 0.461591 1.075398 0.860911 1.719846 1.176216 4.130595 2.012417 8.277004 3.770811 12.43132 5.278147-5.196108 1.393668-10.331923 2.932633-15.391629 4.62678-3.772788 1.26122-5.805961 5.339429-4.544741 9.111228 0.850039 2.536278 2.973158 4.281822 5.41949 4.772077 0.382517 0.296525 0.802595 0.558456 1.25529 0.778873 4.282811 2.086548 8.582425 3.895351 12.890934 5.439259-5.35722 1.426286-10.649205 3.005776-15.863104 4.75132-3.770811 1.26122-5.803985 5.339429-4.543753 9.110239 0.981498 2.93461 3.669992 4.812602 6.591753 4.908479 0.035583 0.017792 0.066224 0.038548 0.100819 0.05634 4.599104 2.240741 9.216 4.156293 13.841792 5.770378-5.68834 1.491521-11.305514 3.157992-16.83373 5.006332-3.770811 1.26122-5.804973 5.339429-4.544741 9.110239 0.21844 0.654332 0.535722 1.245405 0.908355 1.787058l-83.075459 0c15.582394-4.573405 31.810224-7.71756 48.388942-9.325714 2.773498-0.269838 5.02017-2.080618 5.986842-4.501251 0.690903-1.234533 1.026965-2.683552 0.88068-4.197807-0.382517-3.956633-3.903259-6.853683-7.859892-6.470178-11.474533 1.112958-23.095351-0.083027-34.71617-3.541498 11.904494-2.87827 24.131212-4.935166 36.550672-6.141035 1.305699-0.125529 2.489822-0.599969 3.486147-1.311629 2.244695-1.400587 3.634409-3.987274 3.361606-6.79932-0.384494-3.956633-3.900293-6.850718-7.86088-6.470178-11.824432 1.145575-23.804046-0.15617-35.77773-3.861745 11.397436-2.808093 23.09634-4.861035 34.982054-6.133127 1.008185-0.067212 2.012417-0.145297 3.018625-0.243151 3.957622-0.383506 6.854672-3.903259 6.470178-7.86088-0.343969-3.544463-3.203459-6.231969-6.641174-6.478085-0.517931-0.064247-1.046734-0.078085-1.587398-0.02471-0.808525 0.079073-1.614085 0.167042-2.421622 0.252046-11.079166 0.714625-22.283861-0.710672-33.483614-4.23932 12.401668-3.081884 25.162131-5.275181 38.134116-6.534425 0.074131-0.006919 0.145297-0.022734 0.217452-0.032618 0.051398-0.004942 0.100819-0.006919 0.153205-0.012849 3.956633-0.383506 6.853683-3.904247 6.469189-7.86088-0.383506-3.956633-3.90227-6.850718-7.86088-6.469189-11.940077 1.156448-24.040278-0.185822-36.134548-3.978378 10.47129-2.596571 21.198579-4.554625 32.092911-5.854394 2.088525-0.073143 4.178039-0.202625 6.263598-0.406239 3.956633-0.383506 6.853683-3.904247 6.469189-7.86088-0.223382-2.305977-1.51722-4.243274-3.335907-5.388849-1.366981-0.981498-3.077931-1.495475-4.885745-1.318548-1.857236 0.179892-3.709529 0.384494-5.559846 0.600958-10.173776 0.286641-20.443429-1.222672-30.708139-4.498286 12.516324-3.130317 25.399351-5.354255 38.496865-6.624371 3.957622-0.383506 6.854672-3.904247 6.470178-7.86088s-3.903259-6.854672-7.86088-6.470178c-20.821992 2.021313-41.149776 6.313019-60.420942 12.758486-3.772788 1.26122-5.804973 5.340417-4.543753 9.110239 0.758116 2.26644 2.532324 3.904247 4.647537 4.579336 0.567351 0.584154 1.23651 1.087259 2.009452 1.463846 4.023846 1.960031 8.061529 3.678888 12.109097 5.159537-5.083429 1.370934-10.108541 2.883212-15.062486 4.540788-3.770811 1.26122-5.804973 5.339429-4.543753 9.111228 0.809514 2.419645 2.780417 4.121699 5.085405 4.699923 0.470486 0.410193 0.994347 0.770965 1.582456 1.057606 4.174085 2.033174 8.362008 3.805405 12.558826 5.322625-5.241575 1.401575-10.419892 2.954378-15.524077 4.662363-3.770811 1.26122-5.804973 5.339429-4.543753 9.110239 0.79271 2.370224 2.700355 4.050533 4.944062 4.661375 0.501127 0.461591 1.075398 0.862888 1.720834 1.176216 4.131583 2.012417 8.277004 3.772788 12.432309 5.278147-5.197097 1.393668-10.331923 2.932633-15.392618 4.62678-3.772788 1.26122-5.804973 5.339429-4.543753 9.110239 0.84905 2.536278 2.973158 4.281822 5.41949 4.772077 0.382517 0.296525 0.802595 0.558456 1.25529 0.778873 4.283799 2.086548 8.582425 3.895351 12.891923 5.439259-5.35722 1.426286-10.649205 3.005776-15.862116 4.75132-3.772788 1.26122-5.804973 5.339429-4.543753 9.110239 0.981498 2.93461 3.669992 4.812602 6.592741 4.908479 0.035583 0.017792 0.066224 0.038548 0.100819 0.05634 4.599104 2.240741 9.216 4.156293 13.841792 5.770378-5.68834 1.491521-11.305514 3.157992-16.83373 5.004355-3.770811 1.26122-5.804973 5.339429-4.543753 9.110239 0.21844 0.654332 0.535722 1.245405 0.908355 1.787058l-83.076448 0c15.582394-4.573405 31.810224-7.71756 48.388942-9.325714 2.773498-0.269838 5.019181-2.080618 5.98783-4.501251 0.689915-1.234533 1.025977-2.683552 0.879691-4.197807-0.383506-3.956633-3.903259-6.853683-7.86088-6.470178-11.474533 1.112958-23.095351-0.083027-34.71617-3.541498 11.904494-2.87827 24.131212-4.935166 36.549683-6.141035 1.303722-0.125529 2.489822-0.599969 3.486147-1.311629 2.245683-1.401575 3.634409-3.987274 3.361606-6.79932-0.383506-3.956633-3.899305-6.850718-7.86088-6.470178-11.824432 1.145575-23.804046-0.155181-35.778718-3.861745 11.397436-2.808093 23.09634-4.861035 34.982054-6.133127 1.007197-0.067212 2.014394-0.145297 3.019614-0.243151 3.956633-0.383506 6.853683-3.903259 6.469189-7.86088-0.343969-3.544463-3.203459-6.231969-6.641174-6.478085-0.516942-0.064247-1.046734-0.078085-1.586409-0.02471-0.808525 0.079073-1.614085 0.167042-2.421622 0.252046-11.079166 0.714625-22.283861-0.710672-33.482625-4.23932 12.401668-3.081884 25.162131-5.275181 38.134116-6.534425 0.074131-0.006919 0.145297-0.022734 0.217452-0.032618 0.051398-0.004942 0.100819-0.008896 0.153205-0.012849 3.956633-0.383506 6.853683-3.904247 6.470178-7.86088-0.383506-3.956633-3.90227-6.850718-7.86088-6.469189-11.940077 1.156448-24.040278-0.184834-36.134548-3.978378 10.47129-2.596571 21.198579-4.554625 32.092911-5.854394 2.089514-0.073143 4.179027-0.202625 6.263598-0.406239 3.956633-0.383506 6.853683-3.904247 6.470178-7.86088-0.223382-2.304988-1.51722-4.243274-3.335907-5.388849-1.366981-0.981498-3.077931-1.495475-4.885745-1.318548-1.859212 0.179892-3.709529 0.384494-5.559846 0.600958-10.174764 0.286641-20.445405-1.22366-30.708139-4.498286 12.516324-3.130317 25.399351-5.354255 38.496865-6.624371 3.956633-0.383506 6.853683-3.904247 6.470178-7.86088s-3.903259-6.854672-7.86088-6.470178c-20.822981 2.021313-41.150764 6.313019-60.420942 12.758486-3.770811 1.26122-5.804973 5.340417-4.543753 9.111228 0.758116 2.26644 2.532324 3.904247 4.647537 4.579336 0.567351 0.584154 1.235521 1.087259 2.009452 1.463846 4.023846 1.960031 8.061529 3.678888 12.109097 5.159537-5.085405 1.370934-10.108541 2.883212-15.064463 4.540788-3.770811 1.26122-5.804973 5.339429-4.543753 9.111228 0.809514 2.419645 2.780417 4.121699 5.085405 4.699923 0.469498 0.410193 0.994347 0.770965 1.581467 1.057606 4.174085 2.033174 8.362008 3.805405 12.559815 5.322625-5.241575 1.401575-10.419892 2.954378-15.524077 4.662363-3.772788 1.26122-5.804973 5.339429-4.543753 9.110239 0.79271 2.370224 2.700355 4.050533 4.94505 4.661375 0.501127 0.461591 1.075398 0.862888 1.720834 1.176216 4.130595 2.012417 8.277004 3.772788 12.43132 5.278147-5.196108 1.393668-10.331923 2.932633-15.392618 4.62678-3.772788 1.26122-5.804973 5.339429-4.543753 9.111228 0.848062 2.536278 2.973158 4.281822 5.41949 4.772077 0.382517 0.296525 0.802595 0.558456 1.25529 0.778873 4.283799 2.086548 8.582425 3.895351 12.891923 5.439259-5.35722 1.426286-10.649205 3.005776-15.863104 4.75132-3.770811 1.26122-5.804973 5.339429-4.543753 9.110239 0.982486 2.93461 3.670981 4.812602 6.592741 4.908479 0.035583 0.017792 0.066224 0.038548 0.100819 0.05634 4.599104 2.240741 9.216 4.156293 13.841792 5.770378-5.68834 1.491521-11.305514 3.157992-16.83373 5.006332-3.770811 1.26122-5.804973 5.339429-4.543753 9.110239 0.21844 0.654332 0.535722 1.245405 0.908355 1.787058l-53.004849 0 0 23.743753 36.703876 0 0 309.898378-12.949251 0 0 23.743753-23.755614 0 0 23.743753 465.375382 0 0-23.743753-23.746718 0 0-23.743753-12.070548 0 0-309.882564 35.825174 0zM428.576618 701.953977l66.548139-109.525498-74.156973 0 174.426934-132.499274-66.549127 109.527475 74.157961 0-174.425946 132.497297z" />

</svg>
