<?xml version="1.0" encoding="utf-8"?>
<!DOCTYPE svg PUBLIC "-//W3C//DTD SVG 1.1//EN" "http://www.w3.org/Graphics/SVG/1.1/DTD/svg11.dtd">
<svg style="width:308px;height:308px;" version="1.1" id="图形" xmlns="http://www.w3.org/2000/svg" xmlns:xlink="http://www.w3.org/1999/xlink" x="0px" y="0px" width="1024px" height="1024px" viewBox="0 0 1024 1024" enable-background="new 0 0 1024 1024" xml:space="preserve">
  <path class="svgpath" data-index="path_0" fill="#272636" d="M786.80888 847.837838c-78.766948 41.195238-174.908612-12.71458-185.92348-101.679797-2.165316-17.485233-1.77032-34.845623 4.060479-51.473325 2.681062-7.645121 0.748037-12.033058-4.535293-17.295921-85.061304-84.73487-170.006975-169.586396-254.761288-254.628258-5.791913-5.812379-10.41521-6.832615-18.577101-4.538363-72.713069 20.444635-148.311861-25.295106-163.248038-99.328239-5.504364-27.284413-3.914146-54.766324 8.968256-80.46666 5.552459-0.898463 7.238868 3.701299 9.866718 6.30152 25.057699 24.796756 49.783847 49.928133 74.934666 74.629721 21.171182 20.792559 46.709835 21.995967 65.357544 3.665483 18.324344-18.011212 17.283642-44.533262-3.222391-65.373916-27.201525-27.644617-54.81135-54.889121-84.061534-84.118839 40.922015-16.760732 79.538521-17.602913 117.610628 2.24411 54.163597 28.234041 81.982176 92.170213 65.165162 150.839427-2.618641 9.135054-0.449231 13.802354 5.454222 19.685341 84.323501 84.026742 168.561044 168.140465 252.513084 252.537643 6.738471 6.774287 12.271488 7.202029 21.269419 5.065366 50.978045-12.109806 95.838765 0.585331 130.86142 39.422871 33.613562 37.274952 43.297109 81.071434 26.674523 129.641639-3.615341 10.561543-5.962805 14.770402-15.988136 4.182252-24.579815-25.960255-50.173726-50.972928-75.732845-75.985602-13.395078-13.108552-29.463032-18.450211-47.742351-11.505032-16.111956 6.121418-25.689079 18.123776-27.915793 35.358299-2.143826 16.60519 4.963035 29.586852 16.483416 40.933271C731.59537 792.808524 758.666936 819.873949 786.80888 847.837838z" />
<path class="svgpath" data-index="path_1" fill="#272636" d="M161.748894 794.241152c-2.139733-16.570397 5.341658-31.411407 17.679661-43.804668 69.580728-69.892837 139.431609-139.514497 209.017454-209.401194 4.931313-4.952802 7.687076-6.02318 13.220093-0.36225 26.425859 27.04189 53.243645 53.707203 80.263022 80.158644 5.226025 5.116531 5.455245 7.934716 0.11461 13.239536-69.965491 69.508074-139.195226 139.764184-209.69079 208.727859-34.113959 33.373085-85.326341 24.100908-105.519242-17.110703C162.217568 816.266795 161.738661 813.463959 161.748894 794.241152z" />
<path class="svgpath" data-index="path_2" fill="#272636" d="M604.894713 464.054011c-2.417049-2.070148-4.787026-3.858888-6.878664-5.932106-10.878768-10.777461-21.303188-22.052249-32.662911-32.292474-6.878664-6.201236-5.358031-9.82374 0.508583-15.556301 25.924439-25.337061 50.785663-51.788503 77.244268-76.54228 20.823258-19.481703 39.050388-40.659025 48.748261-67.476811 15.32401-42.376133 43.383066-70.798463 85.785805-85.975117 13.31526-4.765537 26.082028-17.778922 38.353516-16.877389 12.574387 0.924045 20.049638 18.900465 31.370475 27.396977 13.862729 10.403954 15.204283 19.929912 5.646604 35.010375-13.049201 20.591991-23.242354 43.040259-34.013675 65.008596-3.831258 7.813966-8.870018 13.248745-16.868179 16.528442-59.121516 24.249287-108.413152 61.8343-150.242839 109.895923-12.371772 14.21577-26.558889 26.851555-39.938618 40.187281C609.794303 459.575 607.517447 461.598077 604.894713 464.054011z" />

</svg>
